<?xml version="1.0" encoding="utf-8"?>
<!-- Generator: Adobe Illustrator 22.1.0, SVG Export Plug-In . SVG Version: 6.00 Build 0)  -->
<svg version="1.0" id="Layer_1" xmlns="http://www.w3.org/2000/svg" xmlns:xlink="http://www.w3.org/1999/xlink" x="0px" y="0px"
	 viewBox="0 0 120 24" xml:space="preserve">
<style type="text/css">
	.st0{fill:#AC98F1;}
	.st1{fill:#54B721;}
</style>
<g>
	<path class="st0" d="M1.2,14.2c-0.1,0.2-0.2,0.2-0.3,0c-0.3-0.3-0.5-0.9,0-2c0.7-1.7,3.6-6.5,5.5-9.2C6.5,2.9,6.7,2.8,6.9,3
		c0.7,0.6,0.9,1.2,0.4,2.7C6.8,7.4,6.1,9.5,5.4,12c2-3.2,4.6-5.9,6.6-9c0.2-0.3,0.3-0.3,0.5-0.1c0.7,0.7,0.5,1.7,0.1,2.6
		c-1.3,2.3-3.1,6-4,8.6c-0.1,0.2-0.1,0.2-0.3,0.1c-0.3-0.2-0.5-0.8-0.2-2c0.3-1.1,1.4-3.6,2.6-5.8C8.7,9,6.6,11.7,5.3,14.1
		c-0.1,0.2-0.2,0.2-0.3,0.1c-0.6-0.4-0.9-1.1-0.7-2.2c0.2-1,0.8-3.5,1.5-5.9C4.2,8.6,2.2,11.8,1.2,14.2z"/>
	<path class="st0" d="M14.7,14.7c-1,2.4-2.3,5.3-3.8,5.9c-0.3,0.1-0.7,0.1-1-0.4c-0.4-0.5-0.7-1.2-0.4-2.2c0.5-1.6,2.1-2.7,3.9-3.4
		c0.2-0.4,0.4-0.9,0.6-1.3c-0.6,0.6-1.2,1-2,1c-1.3-0.1-1.3-1.4-0.9-2.6c0.4-1.2,1.3-2.9,2.4-4.6c0.1-0.2,0.3-0.2,0.5,0
		c0.4,0.6,0.3,1.3-0.3,2.4c-0.6,1-1,1.8-1.4,2.6c-0.4,0.9-0.3,1.5,0.1,1.5c0.7,0.1,1.6-1.1,2.5-2.7c0.8-1.3,1.5-3,2.2-3.9
		c0.2-0.2,0.3-0.3,0.5-0.1c0.3,0.3,0.4,1.1-0.1,2c-0.5,1-1.6,3.2-2.4,5c1.4-0.8,2.5-1.8,3.2-2.8c0.1-0.1,0.3-0.1,0.3,0
		c0,0.2,0,0.6-0.3,1C17.5,13.4,16.2,14.1,14.7,14.7z M10.3,19.6c0.2,0.3,1.7-1.6,2.8-4.3C10.8,16.6,9.9,19.1,10.3,19.6z"/>
	<path class="st0" d="M18.7,14.1c-0.1,0.2-0.2,0.2-0.3,0.1c-0.3-0.3-0.4-0.8-0.2-1.8c0.5-1.6,2.1-5.1,3.7-7.5
		c-0.6-0.1-0.9-0.3-1.2-0.7c-0.1-0.2,0-0.3,0.2-0.3c1.5-0.2,2.9-0.9,4.1-1c0.9,0,1.7,0.2,2.1,1.5c0.4,1.1,0.1,2.2-0.6,3.1
		c-1,1.3-2.9,2.4-4.9,2.9c0.7,0.8,1.3,1.7,1.7,2.5c0.3,0.5,0.3,1.1,0.1,1.5c-0.1,0.1-0.2,0.2-0.3,0c-1.2-1.6-2.1-2.8-3-3.7
		C19.8,11.4,19.3,12.6,18.7,14.1z M22.4,6.7c-0.5,0.9-0.9,1.6-1.4,2.5c4-0.9,6-3.5,5.5-4.8c-0.4-1-2.2-0.1-3.4,0.3
		C23.1,5.2,22.9,5.8,22.4,6.7z"/>
	<path class="st0" d="M31.5,10.4c-0.4,1.5-1.5,3.3-2.8,3.8c-0.6,0.2-1.5,0.1-2.3-0.8c-0.8-1-0.5-2.6,0.3-4.1C27.3,8.1,28.4,7,29.5,7
		c0.6,0,0.9,0.1,1.2,0.6c0.4,0.6,1,0.7,0.8,2c0,0.1,0,0.3,0,0.4c0.1,0,0.2,0,0.4,0c0.1,0,0.1,0.1,0.1,0.2
		C31.8,10.3,31.6,10.3,31.5,10.4z M29.9,9.9c-0.4-0.3-0.8-0.9-0.8-1.6c-0.5,0.4-1,1-1.4,1.7c-0.8,1.4-1,3-0.6,3.4
		c0.5,0.4,1.6-0.2,2.5-1.9c0.3-0.5,0.5-1,0.6-1.4C30.1,10.1,30,10,29.9,9.9z M30.5,8.3c-0.1-0.6-0.5-0.5-0.5,0.1
		c-0.1,0.5,0.1,1,0.4,1.3C30.5,9.1,30.6,8.6,30.5,8.3z"/>
	<path class="st0" d="M34.5,8c0.1-0.7,0.3-1,0.6-1.4c0.4-0.4,0.8-0.4,1-0.3c0.2,0.2,0.1,0.4-0.1,0.8c-0.1,0.1-0.1,0.2-0.2,0.3
		c-0.1,1.7,0.2,3.1,0.2,4.3c0,0.7-0.2,1.5-0.8,1.9c1.2-0.5,2-1.5,2.4-2.5c0.1-0.2,0.3-0.1,0.3,0c0.1,0.2,0.1,0.6-0.3,1.2
		c-0.7,1.2-1.9,1.9-3.2,2c-1,0-2.1-0.2-2.7-1.4c-0.4-0.8-0.4-2,0.2-2.5c0.2-0.2,0.4-0.1,0.4,0.2c0,0.1,0,0.3,0,0.4
		C33.2,10,34,8.9,34.5,8z M32.6,12c0.3,1,0.8,1.8,1.4,1.6c0.8-0.3,0.6-3.1,0.5-4.5C34,10.1,33.3,11,32.6,12z"/>
	<path class="st0" d="M39.6,13.8c1.5,0.1,2.8-1.4,3.6-2.6c0.1-0.1,0.2-0.1,0.3,0c0.1,0.1,0,0.6-0.3,1.1c-0.8,1.1-2.1,1.9-3.5,1.9
		c-2.3,0-3.1-2.2-1.9-4.5c1.2-2.3,3-3.3,3.9-2.7c0.4,0.3,0.8,0.5,1.1,0.9c0.3,0.4,0.2,1.5-0.6,2.4c-0.9,1.1-2.1,1.5-3.3,0.5
		C38.2,12.6,38.7,13.7,39.6,13.8z M41.1,9.6c0.6-0.8,1-1.7,0.7-1.9c-0.4-0.3-1.9,0.8-2.7,2.5c-0.1,0.1-0.1,0.2-0.1,0.3
		C39.9,11.1,40.6,10.3,41.1,9.6z"/>
	<path class="st0" d="M48.6,6.9c0.6,0,0.9,1,0.7,1.8C50.1,7.8,51.3,7,51.9,7c0.6,0,0.8,1.1,0.4,2c-0.3,0.8-1.2,2-1.7,2.9
		c-0.5,1-0.3,1.9,0.4,1.8c0.7,0,1.5-1.2,2.3-2.5c0.1-0.2,0.2-0.2,0.3,0c0.1,0.1,0,0.7-0.2,1.1c-0.5,1-1.7,1.9-2.7,1.9
		c-1.6,0-2.1-1.2-1.5-2.7c0.7-1.5,2.3-3.5,2-3.6c-0.1-0.1-0.8,0.1-1.9,1.3c-1.5,1.5-2.4,3.2-3.1,4.9c-0.1,0.2-0.3,0.3-0.4,0.1
		c-0.3-0.3-0.6-1,0-2.3c0.6-1.5,2.5-4,2.2-4.1c-0.2-0.1-1.1,0.4-2.3,1.7c-1.1,1.2-1.9,2.8-2.6,4.5c-0.1,0.2-0.2,0.2-0.3,0.1
		c-0.4-0.3-0.5-0.9-0.2-1.9c0.4-1.1,1.7-3.7,2.8-5.4c0.1-0.2,0.3-0.2,0.4,0c0.3,0.5,0.3,1.2,0,1.9C46.6,8,47.9,6.9,48.6,6.9z"/>
	<path class="st0" d="M54.6,14.2c-1.7,0-2-2.3-0.5-4.4c1.4-2.1,2.9-2.9,3.8-2.9c0.7,0,1.1,0.6,1.1,1.2c0.3-0.5,0.5-0.8,0.6-1
		c0.1-0.2,0.3-0.3,0.4-0.1c0.3,0.3,0.4,1.1,0,2c-0.4,0.8-1.3,2.2-1.7,3.1c-0.4,1-0.4,1.7,0.2,1.6c1.2-0.1,2.8-2.3,3.6-5
		c-1.5-0.5,0.3-3,1-3c0.6,0,0.4,1,0,2.3c0.6-0.1,1.3-0.4,2-0.8c0.3-0.2,0.4-0.2,0.5,0c0.3,0.4,0.8,1.2,0.3,1.8
		c-0.8,1-1.8,2.2-2.1,3.1c-0.3,1-0.1,1.7,0.5,1.7c0.8,0.1,1.7-1.1,2.2-2.5c0.1-0.1,0.2-0.2,0.3,0c0.1,0.2,0.1,0.7-0.1,1.2
		c-0.5,1.1-1.5,1.9-2.5,1.8c-1.4-0.1-1.9-1.3-1.5-2.7c0.4-1.2,1.5-2.5,2.2-3.4c-0.8,0.5-1.6,0.7-2.1,0.7c-0.9,2.5-2.5,5.3-4.4,5.4
		c-1,0.1-1.5-0.6-1.5-1.5C56.3,13.5,55.5,14.2,54.6,14.2z M55.3,10.5c-1,1.5-1.2,3.1-0.5,3.1c0.7,0,1.7-1.1,2.6-2.7
		c1.1-2,1.3-3.1,0.8-3.1C57.6,7.7,56.2,8.9,55.3,10.5z"/>
	<path class="st0" d="M69.9,14.7c-1,2.4-2.3,5.3-3.8,5.9c-0.3,0.1-0.7,0.1-1-0.4c-0.4-0.5-0.7-1.2-0.4-2.2c0.5-1.6,2.1-2.7,3.9-3.4
		c0.2-0.4,0.4-0.9,0.6-1.3c-0.6,0.6-1.2,1-2,1c-1.3-0.1-1.3-1.4-0.9-2.6c0.4-1.2,1.3-2.9,2.4-4.6c0.1-0.2,0.3-0.2,0.5,0
		c0.4,0.6,0.3,1.3-0.3,2.4c-0.6,1-1,1.8-1.4,2.6c-0.4,0.9-0.3,1.5,0.1,1.5c0.7,0.1,1.6-1.1,2.5-2.7c0.8-1.3,1.5-3,2.2-3.9
		c0.2-0.2,0.3-0.3,0.4-0.1c0.3,0.3,0.4,1.1-0.1,2c-0.5,1-1.6,3.2-2.4,5c1.4-0.8,2.5-1.8,3.2-2.8c0.1-0.1,0.3-0.1,0.3,0
		c0,0.2,0,0.6-0.3,1C72.6,13.4,71.4,14.1,69.9,14.7z M65.4,19.6c0.2,0.3,1.7-1.6,2.8-4.3C65.9,16.6,65.1,19.1,65.4,19.6z"/>
	<path class="st1" d="M77,4.7c-1.1,0-1.9-0.4-2.1-1c-0.1-0.2,0-0.3,0.2-0.2c1.6,0.1,4.6-0.5,5.6-0.5c0.8,0,1.4,0.2,1.7,0.9
		c0.1,0.1,0,0.3-0.2,0.3c-0.9-0.1-2,0.1-3.1,0.3c0,0.4-0.1,1-0.6,1.9c-1.1,2-2.6,4.5-4,7.8c-0.1,0.2-0.2,0.2-0.3,0.1
		c-0.3-0.2-0.5-0.8-0.2-1.6c0.4-1.5,2.4-5.4,4-7.9C77.7,4.6,77.3,4.7,77,4.7z"/>
	<path class="st1" d="M83.5,14.3c-1.5,0-1.9-1.1-1.4-2.7C82.7,9.9,84.3,8,84,7.8c-0.3-0.1-2.2,1.1-3.3,2.8c-0.6,1.1-1.3,2.3-1.7,3.4
		c-0.1,0.2-0.2,0.2-0.3,0.1c-0.3-0.3-0.5-0.8-0.1-1.9c0.6-1.8,4.4-8.1,5.8-10c0.2-0.2,0.3-0.2,0.4,0c0.2,0.5,0.2,1.4-0.5,2.6
		C83.9,5.6,83,7,82.2,8.2c0.7-0.7,1.7-1.3,2.2-1.3c0.6,0.1,1.2,1,0.7,1.9c-0.4,0.8-1.3,2.1-1.7,3c-0.5,1-0.4,1.9,0.3,1.9
		c0.7,0,1.7-1.3,2.3-2.5c0.1-0.2,0.3-0.2,0.3,0c0.1,0.2,0.1,0.6-0.2,1.1C85.6,13.4,84.5,14.3,83.5,14.3z"/>
	<path class="st1" d="M89.2,14.7c-1,2.4-2.3,5.3-3.8,5.9c-0.3,0.1-0.7,0.1-1-0.4c-0.4-0.5-0.7-1.2-0.4-2.2c0.5-1.6,2.1-2.7,3.9-3.4
		c0.2-0.4,0.4-0.9,0.6-1.3c-0.6,0.6-1.2,1-2,1c-1.3-0.1-1.3-1.4-0.9-2.6c0.4-1.2,1.3-2.9,2.4-4.6c0.1-0.2,0.3-0.2,0.5,0
		c0.4,0.6,0.3,1.3-0.3,2.4c-0.6,1-1,1.8-1.4,2.6c-0.4,0.9-0.3,1.5,0.1,1.5c0.7,0.1,1.6-1.1,2.5-2.7c0.8-1.3,1.5-3,2.2-3.9
		C91.7,6.9,91.8,6.8,92,7c0.3,0.3,0.4,1.1-0.1,2c-0.5,1-1.6,3.2-2.4,5c1.4-0.8,2.5-1.8,3.2-2.8c0.1-0.1,0.3-0.1,0.3,0
		c0,0.2,0,0.6-0.3,1C92,13.4,90.7,14.1,89.2,14.7z M84.8,19.6c0.2,0.3,1.7-1.6,2.8-4.3C85.3,16.6,84.4,19.1,84.8,19.6z"/>
	<path class="st1" d="M98.1,6.9c0.6,0,0.9,1,0.7,1.8c0.9-0.8,2.1-1.7,2.7-1.7c0.6,0,0.8,1.1,0.4,2c-0.3,0.8-1.2,2-1.7,2.9
		c-0.5,1-0.3,1.9,0.4,1.8c0.7,0,1.5-1.2,2.3-2.5c0.1-0.2,0.2-0.2,0.3,0c0.1,0.1,0,0.7-0.2,1.1c-0.5,1-1.7,1.9-2.7,1.9
		c-1.6,0-2.1-1.2-1.5-2.7c0.7-1.5,2.3-3.5,2-3.6c-0.1-0.1-0.8,0.1-1.9,1.3c-1.5,1.5-2.4,3.2-3.1,4.9c-0.1,0.2-0.3,0.3-0.4,0.1
		c-0.3-0.3-0.6-1,0-2.3c0.6-1.5,2.5-4,2.2-4.1c-0.2-0.1-1.1,0.4-2.3,1.7c-1.1,1.2-1.9,2.8-2.6,4.5c-0.1,0.2-0.2,0.2-0.3,0.1
		c-0.4-0.3-0.5-0.9-0.2-1.9c0.4-1.1,1.7-3.7,2.8-5.4c0.1-0.2,0.3-0.2,0.4,0c0.3,0.5,0.3,1.2,0,1.9C96.1,8,97.5,6.9,98.1,6.9z"/>
	<path class="st1" d="M105.1,13.8c1.5,0.1,2.8-1.4,3.6-2.6c0.1-0.1,0.2-0.1,0.3,0c0.1,0.1,0,0.6-0.3,1.1c-0.8,1.1-2.1,1.9-3.5,1.9
		c-2.3,0-3.1-2.2-1.9-4.5c1.2-2.3,3-3.3,3.9-2.7c0.4,0.3,0.8,0.5,1.1,0.9c0.3,0.4,0.2,1.5-0.6,2.4c-0.9,1.1-2.1,1.5-3.3,0.5
		C103.7,12.6,104.2,13.7,105.1,13.8z M106.6,9.6c0.6-0.8,1-1.7,0.7-1.9c-0.4-0.3-1.9,0.8-2.7,2.5c-0.1,0.1-0.1,0.2-0.1,0.3
		C105.3,11.1,106.1,10.3,106.6,9.6z"/>
</g>
<g>
</g>
<g>
</g>
<g>
</g>
<g>
</g>
<g>
</g>
<g>
</g>
<g>
</g>
<g>
</g>
<g>
</g>
<g>
</g>
<g>
</g>
<g>
</g>
<g>
</g>
<g>
</g>
<g>
</g>
</svg>
